<?xml version="1.0" encoding="utf-8"?>
<!-- Generator: Adobe Illustrator 16.0.0, SVG Export Plug-In . SVG Version: 6.00 Build 0)  -->
<!DOCTYPE svg PUBLIC "-//W3C//DTD SVG 1.1//EN" "http://www.w3.org/Graphics/SVG/1.1/DTD/svg11.dtd">
<svg version="1.1" id="Calque_1" xmlns="http://www.w3.org/2000/svg" xmlns:xlink="http://www.w3.org/1999/xlink" x="0px" y="0px"
	 width="200px" height="200px" viewBox="0 0 432 432" enable-background="new 0 0 432 432" xml:space="preserve">
<g>
	<!-- <path fill="#402817" d="M307.283,128.012c0.502-0.875,0.746-1.692,0.978-2.512c1.642-5.806,3.229-11.628,4.783-17.458 -->
		c1.655-6.204,3.786-12.261,5.983-18.291c0.554-1.52,1.207-3.005,1.844-4.494c0.196-0.458,0.175-0.765-0.17-1.177
		c-1.069-1.279-0.986-3.029,0.12-4.188c1.213-1.271,3.476-1.21,4.666,0.126c1.149,1.29,0.944,3.549-0.515,4.541
		c-0.613,0.417-0.774,0.847-0.852,1.544c-0.257,2.343-0.806,4.641-1.275,6.949c-1.036,5.082-2.478,10.063-3.686,15.103
		c-1.023,4.272-1.751,8.595-2.265,12.96c-0.314,2.67-0.341,5.351-0.491,8.027c-0.135,2.385-0.396,4.757-0.604,7.135
		c-0.049,0.558-0.058,1.123-0.153,1.672c-0.085,0.485,0.084,0.741,0.487,0.999c1.415,0.906,2.774,1.892,4.058,2.981
		c1.501,1.274,2.706,2.805,3.626,4.523c1.875,3.507,3.134,7.232,3.683,11.187c0.314,2.266,0.124,4.457-0.741,6.592
		c-2.121,5.238-5.153,9.872-9.296,13.719c-2.128,1.975-4.11,4.049-5.806,6.405c-1.434,1.991-3.091,3.789-4.876,5.473
		c-2.913,2.749-6.37,4.526-10.161,5.689c-3.717,1.141-7.517,1.931-11.354,2.541c-2.528,0.402-5.067,0.727-7.612,0.997
		c-0.966,0.102-1.938,0.146-2.909,0.204c-6.657,0.394-13.321,0.229-19.982,0.188c-3.125-0.02-6.252-0.071-9.373-0.21
		c-5.953-0.266-11.908-0.143-17.862-0.137c-3.863,0.004-7.727,0.058-11.587-0.042c-2.648-0.068-5.292-0.298-7.938-0.442
		c-0.883-0.048-1.768-0.069-2.643-0.201c-1.563-0.234-3.035,0.25-4.525,0.57c-4.17,0.892-8.347,1.751-12.566,2.362
		c-2.126,0.307-4.279,0.424-6.433,0.426c-1.976,0.001-3.951-0.008-5.927-0.003c-1.924,0.004-3.82-0.216-5.668-0.755
		c-0.414-0.121-0.722-0.059-1.078,0.125c-3.768,1.951-7.792,3.147-11.933,3.969c-2.395,0.475-4.798,0.921-7.227,1.178
		c-1.698,0.179-3.403,0.314-5.108,0.394c-2.563,0.119-5.129,0.147-7.693,0.035c-1.822-0.081-3.642-0.195-5.411-0.718
		c-0.745-0.22-1.528-0.037-2.271,0.059c-2.989,0.382-5.992,0.442-8.997,0.497c-2.771,0.051-5.546,0.034-8.31,0.206
		c-5.121,0.318-10.246,0.405-15.372,0.538c-2.617,0.068-5.237,0.199-7.853,0.421c-2.35,0.2-4.715,0.099-7.073,0.095
		c-4.068-0.007-8.14,0.032-12.205-0.087c-2.76-0.08-5.532-0.236-8.219-1.002c-1.248-0.356-2.469-0.791-3.598-1.435
		c-1.836-1.047-3.186-2.504-3.718-4.614c-0.438-1.74-0.063-3.265,1.182-4.567c0.701-0.733,1.533-1.286,2.43-1.745
		c0.865-0.443,1.756-0.833,2.674-1.151c3.227-1.12,6.377-2.428,9.496-3.814c3.807-1.692,7.784-2.839,11.849-3.713
		c2.357-0.507,4.705-1.055,7.057-1.585c0.2-0.045,0.397-0.127,0.6-0.143c0.427-0.033,0.517-0.267,0.5-0.652
		c-0.037-0.913-0.059-1.827-0.053-2.741c0.042-6.222,0.041-12.444-0.2-18.661c-0.112-2.893-0.113-5.778,0.108-8.66
		c0.303-3.942,0.95-7.829,1.979-11.655c2.372-8.831,6.116-17.054,10.899-24.822c1.813-2.946,4.027-5.594,6.227-8.252
		c3.817-4.616,7.813-9.063,12.206-13.148c4.839-4.5,10.15-8.334,15.957-11.487c4.726-2.566,9.794-4.141,15.035-5.21
		c3.867-0.789,7.777-1.275,11.707-1.642c4.349-0.406,8.703-0.604,13.066-0.491c8.381,0.217,16.308,2.24,23.654,6.304
		c6.812,3.767,13.081,8.322,18.763,13.638c5.373,5.029,9.706,10.913,13.511,17.19c5.756,9.497,10.071,19.637,13.396,30.212
		c0.592,1.884,0.98,3.82,1.363,5.756c0.141,0.71,0.17,0.753,0.908,0.828c2.197,0.223,4.362,0.661,6.546,0.981
		c1.313,0.193,2.633,0.303,3.952,0.4c9.359,0.691,18.451-0.486,27.18-4.033c3.438-1.397,6.559-3.329,9.346-5.79
		c0.777-0.687,1.362-1.549,2.114-2.257c0.138-0.13,0.157-0.283,0.116-0.48c-0.581-2.825-1.043-5.68-1.75-8.473
		c-0.999-3.947-1.581-7.971-2.404-11.949c-0.544-2.624-1.139-5.237-1.667-7.863c-0.732-3.639-1.269-7.31-1.72-10.996
		c-0.211-1.727-0.431-3.448-0.491-5.186c-0.013-0.367-0.26-0.492-0.476-0.683c-0.825-0.729-1.211-1.643-1.142-2.75
		c0.12-1.92,2.009-3.23,3.842-2.656c2.106,0.661,3.122,3.275,1.758,4.984c-0.305,0.382-0.222,0.666-0.073,1.032
		c1.616,3.984,3.261,7.957,4.823,11.961c1.135,2.907,2.096,5.879,3.297,8.763c1.473,3.536,3.097,7.003,4.654,10.5
		C306.681,126.608,306.956,127.257,307.283,128.012z M172.793,198.746c1.522,0.083,2.845,0.157,4.168,0.226
		c5.25,0.27,10.46,0.13,15.66-0.849c7.641-1.438,15.186-3.181,22.518-5.811c3.657-1.312,7.335-2.545,10.722-4.496
		c3.937-2.267,7.542-4.934,10.439-8.477c1.382-1.689,2.696-3.427,3.954-5.21c3.203-4.542,5.075-9.512,5.2-15.135
		c0.103-4.619-0.563-9.104-1.866-13.509c-1.666-5.63-3.91-11.042-6.295-16.397c-2.595-5.826-5.617-11.42-9.186-16.706
		c-4.366-6.465-9.427-12.295-15.709-17.002c-3.797-2.845-7.574-5.71-11.638-8.178c-7.304-4.436-15.212-6.847-23.746-7.111
		c-4.743-0.147-9.483-0.025-14.216,0.435c-3.401,0.331-6.785,0.746-10.123,1.48c-4.203,0.925-8.339,2.081-12.212,4.002
		c-5.871,2.911-11.179,6.658-16.084,10.985c-3.876,3.418-7.445,7.14-10.828,11.042c-2.394,2.761-4.867,5.462-6.978,8.453
		c-4.849,6.873-8.31,14.422-10.775,22.442c-0.526,1.71-1.005,3.437-1.353,5.217c0.101-0.025,0.173-0.021,0.205-0.055
		c0.2-0.215,0.396-0.435,0.586-0.659c1.68-1.979,3.403-3.913,5.339-5.652c5.121-4.6,10.817-8.234,17.395-10.383
		c3.36-1.098,6.795-1.884,10.29-2.433c3.145-0.494,6.3-0.863,9.479-0.989c3.929-0.156,7.819,0.28,11.703,0.824
		c4.325,0.606,8.56,1.579,12.665,3.066c6.132,2.221,11.499,5.604,15.563,10.775c6.703,8.532,9.5,18.311,8.815,29.081
		c-0.321,5.045-1.377,9.966-3.131,14.727c-1.778,4.823-4.173,9.289-7.513,13.22C174.947,196.722,173.932,197.658,172.793,198.746z
		 M135.324,203.732c0.998,0.054,1.996,0.135,2.995,0.157c4.872,0.106,9.705-0.321,14.523-1.01c3.679-0.526,7.29-1.299,10.804-2.526
		c3.119-1.09,5.998-2.57,8.414-4.876c3.166-3.022,5.449-6.653,7.197-10.613c1.937-4.389,3.137-8.99,3.624-13.782
		c0.326-3.209,0.469-6.41,0.088-9.615c-0.679-5.715-2.417-11.093-5.286-16.089c-2.68-4.666-6.28-8.452-10.912-11.22
		c-3.358-2.007-6.984-3.369-10.746-4.407c-3.212-0.886-6.479-1.484-9.777-1.901c-2.248-0.285-4.504-0.541-6.775-0.547
		c-1.887-0.005-3.766,0.139-5.646,0.292c-3.318,0.271-6.605,0.738-9.857,1.452c-4.188,0.918-8.23,2.244-11.964,4.396
		c-7.474,4.306-13.7,9.964-18.526,17.136c-0.166,0.247-0.321,0.487-0.346,0.798c-0.11,1.38-0.231,2.76-0.342,4.14
		c-0.011,0.132-0.057,0.3,0.16,0.363c0.088-0.059,0.189-0.118,0.281-0.189c4.787-3.665,10.248-5.439,16.222-5.729
		c3.247-0.158,6.47,0.124,9.675,0.667c6.302,1.069,11.702,3.846,16.129,8.469c3.567,3.725,6.251,8.032,8.288,12.754
		c1.435,3.328,2.313,6.793,2.486,10.425c0.133,2.764-0.292,5.464-0.913,8.141c-1.055,4.546-3.329,8.336-7.011,11.25
		C137.213,202.376,136.26,202.999,135.324,203.732z M116.806,202.896c0.075,0.095,0.227,0.089,0.37,0.116
		c1.448,0.272,2.916,0.399,4.382,0.492c1.998,0.125,4.009,0.194,5.984-0.24c2.468-0.542,4.739-1.586,6.866-2.927
		c1.754-1.105,3.306-2.461,4.601-4.096c2.77-3.497,3.848-7.581,4.006-11.935c0.104-2.88-0.425-5.709-1.458-8.395
		c-1.873-4.87-4.354-9.386-7.893-13.292c-3.939-4.347-8.672-7.272-14.433-8.5c-2.192-0.467-4.41-0.693-6.639-0.898
		c-1.953-0.18-3.89-0.073-5.819,0.137c-2.62,0.285-5.117,1.068-7.528,2.121c-2.26,0.987-4.309,2.288-6.061,4.047
		c-0.387,0.389-0.554,0.77-0.537,1.316c0.065,2.268,0.105,4.537,0.129,6.806c0.027,2.741,0.024,5.482,0.046,8.223
		c0.001,0.206-0.112,0.467,0.172,0.632c0.482-0.437,0.937-0.898,1.441-1.297c2.309-1.822,4.873-3.19,7.641-4.165
		c2.015-0.71,4.084-1.107,6.239-0.942c0.941,0.072,1.878,0.178,2.796,0.377c4.363,0.951,7.903,3.162,10.33,6.965
		c2.454,3.846,3.24,8.021,2.358,12.521c-0.821,4.195-2.486,7.964-5.394,11.141C117.872,201.689,117.352,202.285,116.806,202.896z
		 M101.253,199.309c0.007,0.072-0.001,0.109,0.015,0.129c0.051,0.068,0.103,0.142,0.169,0.194c2.39,1.859,5.003,3.043,8.127,2.92
		c1.493-0.059,2.833-0.429,4.076-1.237c1.536-0.999,2.732-2.321,3.741-3.832c1.805-2.7,2.729-5.711,3.242-8.889
		c0.796-4.923-1.704-11.28-7.344-13.873c-2.754-1.266-5.635-1.698-8.611-1.029c-2.373,0.533-4.53,1.624-6.66,2.776
		c-2.4,1.297-3.951,3.297-4.988,5.76c-0.108,0.256-0.124,0.502-0.114,0.772c0.041,1.152,0.225,2.286,0.41,3.42
		c0.574,3.512,1.95,6.649,4.306,9.347c0.367,0.421,0.72,0.599,1.284,0.554c0.671-0.054,1.358-0.025,2.029,0.049
		c1.238,0.136,2.472,0.171,3.696-0.068c1.514-0.296,2.967-0.756,4.192-1.75c0.921-0.747,1.317-1.698,1.164-2.888
		c-0.064-0.5-0.156-0.99-0.325-1.462c-1.268-3.542-3.583-6.181-6.887-7.96c-0.282-0.152-0.59-0.267-0.895-0.369
		c-0.661-0.223-1.347-0.221-2.001-0.027c-1.13,0.334-1.602,1.241-1.787,2.313c-0.445,2.581,1.392,5.309,3.956,5.91
		c0.261,0.061,0.529,0.082,0.777-0.051c0.467-0.253,0.684-1.111,0.425-1.657c-0.347-0.73-0.968-1.035-1.584-0.745
		c-0.471,0.222-0.906,0.249-1.313-0.113c-0.348-0.31-0.448-0.884-0.255-1.393c0.323-0.857,1.445-1.476,2.402-1.229
		c1.541,0.397,2.638,1.361,3.004,2.926c0.384,1.637-0.019,3.108-1.395,4.193c-1.132,0.893-2.412,0.815-3.706,0.468
		c-4.804-1.29-6.169-6.11-5.083-9.457c0.7-2.158,2.133-3.529,4.443-3.933c1.493-0.261,2.865,0.037,4.198,0.657
		c2.809,1.307,4.925,3.407,6.675,5.907c1.147,1.639,1.871,3.467,2.249,5.43c0.521,2.716-0.314,4.691-2.624,6.237
		c-0.787,0.527-1.628,0.941-2.514,1.277C105.647,199.383,103.491,199.687,101.253,199.309z"/>
</g>
<g>
	<g>
		<path fill="#402817" d="M377.857,305.792c-0.549-3.955-1.808-7.68-3.683-11.187c-0.919-1.719-2.124-3.249-3.626-4.523
			c-1.283-1.089-2.642-2.075-4.057-2.981c-0.404-0.258-0.573-0.514-0.488-0.999c0.096-0.549,0.104-1.114,0.153-1.672
			c0.207-2.377,0.469-4.75,0.604-7.135c0.151-2.676,0.177-5.356,0.491-8.027c0.515-4.365,1.241-8.688,2.266-12.96
			c1.207-5.04,2.649-10.021,3.685-15.103c0.47-2.309,1.019-4.606,1.275-6.949c0.077-0.698,0.238-1.128,0.852-1.545
			c1.46-0.992,1.665-3.25,0.515-4.541c-1.19-1.335-3.453-1.396-4.666-0.125c-1.106,1.159-1.189,2.909-0.119,4.188
			c0.344,0.413,0.365,0.72,0.17,1.177c-0.638,1.488-1.291,2.974-1.845,4.494c-2.197,6.03-4.328,12.087-5.983,18.291
			c-1.555,5.831-3.142,11.652-4.783,17.459c-0.231,0.819-0.476,1.636-0.977,2.511c-0.328-0.755-0.604-1.404-0.89-2.048
			c-1.558-3.497-3.182-6.965-4.653-10.5c-1.201-2.883-2.163-5.856-3.297-8.762c-1.563-4.005-3.208-7.978-4.824-11.962
			c-0.148-0.366-0.231-0.649,0.073-1.032c1.364-1.709,0.349-4.324-1.757-4.984c-1.834-0.575-3.723,0.735-3.843,2.656
			c-0.069,1.106,0.316,2.02,1.142,2.749c0.216,0.19,0.464,0.315,0.477,0.683c0.06,1.738,0.279,3.459,0.491,5.186
			c0.451,3.686,0.986,7.356,1.719,10.996c0.528,2.627,1.123,5.24,1.667,7.863c0.824,3.979,1.405,8.002,2.404,11.949
			c0.707,2.793,1.169,5.648,1.75,8.473c0.041,0.197,0.021,0.351-0.116,0.48c-0.751,0.708-1.336,1.571-2.113,2.257
			c-2.788,2.461-5.908,4.393-9.347,5.79c-8.729,3.547-17.82,4.724-27.18,4.034c-1.318-0.098-2.64-0.208-3.952-0.401
			c-1.739-0.255-3.469-0.581-5.211-0.817c0.76,3.563,1.106,7.125,1.029,10.631c-0.134,5.993-2.009,11.474-5.734,16.756
			c-1.319,1.871-2.692,3.68-4.08,5.376c-2.833,3.462-6.405,6.373-11.244,9.16c-3.296,1.898-6.788,3.143-10.165,4.347l-1.029,0.368
			c-1.656,0.594-3.351,1.155-5.106,1.69c0.815,0.044,1.631,0.083,2.446,0.105c3.86,0.1,7.725,0.046,11.587,0.042
			c5.954-0.006,11.909-0.129,17.863,0.137c3.121,0.139,6.247,0.191,9.372,0.21c6.662,0.042,13.325,0.207,19.982-0.188
			c0.971-0.057,1.943-0.102,2.909-0.204c2.545-0.27,5.084-0.595,7.612-0.997c3.838-0.61,7.638-1.4,11.354-2.541
			c3.791-1.164,7.249-2.94,10.161-5.689c1.785-1.684,3.443-3.481,4.876-5.473c1.695-2.356,3.679-4.43,5.806-6.405
			c4.143-3.847,7.175-8.48,9.297-13.719C377.981,310.248,378.173,308.058,377.857,305.792z"/>
		<path fill="#402817" d="M142.091,331.809c-2.279,0.516-4.556,1.045-6.841,1.537c-4.064,0.875-8.043,2.021-11.85,3.713
			c-3.119,1.386-6.269,2.694-9.495,3.814c-0.919,0.318-1.809,0.708-2.674,1.151c-0.896,0.459-1.729,1.011-2.43,1.745
			c-1.244,1.302-1.62,2.827-1.182,4.567c0.531,2.11,1.881,3.566,3.718,4.614c1.128,0.644,2.349,1.079,3.598,1.435
			c2.686,0.766,5.459,0.922,8.218,1.002c4.066,0.118,8.137,0.08,12.206,0.087c2.358,0.004,4.724,0.104,7.073-0.095
			c2.614-0.223,5.235-0.354,7.853-0.421c2.405-0.062,4.811-0.116,7.215-0.187C148.016,351.372,143.501,342.647,142.091,331.809z"/>
	</g>
	<g>
		<path fill="#D59E86" d="M296.419,295.832c-1.665-5.63-3.91-11.042-6.295-16.397c-2.595-5.826-5.616-11.42-9.186-16.706
			c-4.365-6.465-9.427-12.295-15.709-17.002c-3.796-2.845-7.573-5.71-11.638-8.178c-7.304-4.436-15.211-6.847-23.746-7.111
			c-1.254-0.039-2.509-0.059-3.763-0.059c-3.487,0-6.973,0.155-10.453,0.494c-3.401,0.331-6.785,0.746-10.122,1.48
			c-4.203,0.925-8.339,2.081-12.213,4.002c-5.87,2.911-11.178,6.658-16.084,10.985c-3.876,3.418-7.445,7.14-10.828,11.042
			c-2.394,2.761-4.867,5.462-6.977,8.453c-4.85,6.873-8.311,14.422-10.776,22.442c-0.525,1.71-1.005,3.437-1.353,5.217
			c0.101-0.025,0.174-0.021,0.205-0.055c0.201-0.214,0.396-0.435,0.586-0.659c1.68-1.979,3.403-3.913,5.34-5.652
			c5.121-4.6,10.816-8.234,17.395-10.383c3.359-1.098,6.795-1.883,10.289-2.433c3.145-0.494,6.3-0.862,9.479-0.989
			c0.549-0.021,1.099-0.032,1.646-0.032c3.371,0,6.717,0.388,10.058,0.856c4.324,0.606,8.559,1.579,12.665,3.066
			c6.131,2.221,11.499,5.604,15.562,10.775c6.703,8.532,9.501,18.311,8.815,29.082c-0.32,5.044-1.377,9.966-3.131,14.726
			c-0.028,0.076-0.06,0.15-0.088,0.226c-0.402,1.139-0.845,2.263-1.333,3.369c-2.077,4.709-4.646,8.487-7.854,11.548
			c-0.346,0.331-0.707,0.647-1.079,0.956c-0.07,0.067-0.137,0.13-0.208,0.199c1.522,0.082,2.846,0.157,4.169,0.225
			c1.504,0.078,3.005,0.121,4.503,0.121c3.731,0,7.446-0.271,11.157-0.97c7.641-1.438,15.185-3.181,22.517-5.811
			c3.657-1.312,7.335-2.545,10.723-4.496c3.936-2.267,7.541-4.934,10.439-8.477c1.381-1.689,2.696-3.428,3.954-5.211
			c3.202-4.542,5.074-9.512,5.199-15.135C298.389,304.723,297.722,300.237,296.419,295.832z"/>
		<path fill="#CC7C61" d="M233.393,331.91c1.184-3.38,1.954-6.876,2.321-10.481c0.325-3.209,0.468-6.41,0.087-9.615
			c-0.678-5.715-2.416-11.093-5.286-16.089c-2.68-4.666-6.28-8.452-10.911-11.22c-3.359-2.007-6.985-3.369-10.747-4.407
			c-3.212-0.886-6.479-1.484-9.777-1.901c-2.248-0.285-4.503-0.541-6.775-0.547c-0.033,0-0.067,0-0.102,0
			c-1.853,0-3.697,0.142-5.544,0.293c-3.318,0.271-6.605,0.738-9.857,1.452c-4.188,0.919-8.23,2.244-11.964,4.396
			c-7.474,4.306-13.7,9.964-18.526,17.136c-0.165,0.247-0.321,0.487-0.346,0.798c-0.11,1.38-0.23,2.76-0.342,4.14
			c-0.01,0.125-0.044,0.28,0.135,0.349c1.046-0.829,2.185-1.571,3.434-2.229c3.995-2.276,8.382-3.447,13.095-3.676
			c0.604-0.029,1.21-0.043,1.813-0.043c2.635,0,5.254,0.269,7.861,0.711c6.303,1.069,11.702,3.847,16.129,8.469
			c3.568,3.726,6.252,8.033,8.288,12.754c1.436,3.328,2.313,6.793,2.487,10.425c0.132,2.763-0.292,5.464-0.913,8.141
			c-1.056,4.546-3.329,8.335-7.011,11.249c-0.896,0.709-1.851,1.332-2.786,2.065c0.999,0.054,1.996,0.135,2.995,0.157
			c0.499,0.011,0.998,0.016,1.496,0.016c4.366,0,8.702-0.408,13.028-1.026c3.678-0.526,7.29-1.299,10.803-2.526
			c2.692-0.941,5.205-2.175,7.396-3.979c0.347-0.286,0.688-0.583,1.019-0.898c3.165-3.022,5.449-6.652,7.196-10.613
			C232.568,334.123,233.003,333.022,233.393,331.91z"/>
		<path fill="#B75F47" d="M191.84,346.589c2.77-3.497,3.849-7.581,4.007-11.935c0.104-2.88-0.425-5.709-1.459-8.395
			c-1.873-4.869-4.354-9.386-7.893-13.292c-3.939-4.347-8.672-7.272-14.432-8.5c-2.192-0.467-4.411-0.693-6.64-0.898
			c-0.69-0.063-1.379-0.091-2.066-0.091c-1.256,0-2.505,0.093-3.753,0.229c-2.62,0.285-5.117,1.068-7.528,2.121
			c-0.516,0.226-1.017,0.472-1.51,0.732c-1.164,0.613-2.261,1.328-3.276,2.165c-0.438,0.362-0.866,0.741-1.274,1.151
			c-0.387,0.389-0.553,0.77-0.537,1.317c0.065,2.268,0.106,4.537,0.129,6.805c0.027,2.741,0.024,5.482,0.046,8.223
			c0.002,0.206-0.112,0.467,0.173,0.632c0.481-0.437,0.936-0.898,1.44-1.297c2.309-1.822,4.873-3.189,7.641-4.165
			c1.709-0.603,3.458-0.979,5.266-0.979c0.323,0,0.647,0.012,0.975,0.037c0.941,0.072,1.877,0.178,2.796,0.378
			c4.363,0.95,7.902,3.162,10.33,6.965c2.454,3.846,3.239,8.021,2.357,12.52c-0.821,4.196-2.486,7.964-5.394,11.141
			c-0.534,0.584-1.055,1.18-1.601,1.792c0.075,0.096,0.227,0.089,0.37,0.116c1.448,0.272,2.916,0.4,4.382,0.492
			c0.835,0.053,1.673,0.095,2.509,0.095c1.164,0,2.325-0.083,3.476-0.335c2.469-0.542,4.739-1.586,6.866-2.926
			C188.993,349.58,190.545,348.225,191.84,346.589z"/>
		<path fill="#925545" d="M173.455,338.942c0.795-4.924-1.705-11.28-7.345-13.874c-1.884-0.866-3.827-1.342-5.82-1.342
			c-0.92,0-1.851,0.102-2.79,0.313c-2.373,0.533-4.53,1.624-6.661,2.776c-2.399,1.297-3.95,3.297-4.988,5.76
			c-0.108,0.256-0.124,0.502-0.114,0.772c0.041,1.152,0.226,2.286,0.411,3.419c0.573,3.512,1.949,6.649,4.305,9.347
			c0.331,0.379,0.649,0.561,1.12,0.561c0.053,0,0.107-0.002,0.164-0.007c0.237-0.019,0.477-0.028,0.717-0.028
			c0.439,0,0.879,0.029,1.313,0.077c0.592,0.065,1.183,0.107,1.771,0.107c0.644,0,1.285-0.05,1.925-0.175
			c1.515-0.296,2.967-0.756,4.192-1.75c0.921-0.747,1.317-1.698,1.164-2.887c-0.064-0.5-0.156-0.991-0.325-1.462
			c-1.267-3.542-3.582-6.181-6.887-7.96c-0.282-0.152-0.589-0.266-0.895-0.369c-0.341-0.115-0.688-0.17-1.033-0.17
			c-0.325,0-0.65,0.049-0.968,0.143c-1.13,0.334-1.602,1.241-1.786,2.313c-0.446,2.581,1.391,5.309,3.955,5.91
			c0.12,0.028,0.242,0.048,0.362,0.048c0.142,0,0.281-0.027,0.415-0.099c0.468-0.253,0.684-1.11,0.425-1.657
			c-0.259-0.545-0.671-0.854-1.119-0.854c-0.152,0-0.309,0.035-0.465,0.109c-0.218,0.103-0.428,0.164-0.631,0.164
			c-0.236,0-0.463-0.083-0.682-0.277c-0.347-0.31-0.447-0.884-0.255-1.394c0.274-0.728,1.126-1.284,1.962-1.284
			c0.148,0,0.296,0.018,0.44,0.055c1.541,0.398,2.638,1.361,3.005,2.926c0.383,1.637-0.02,3.108-1.396,4.193
			c-0.659,0.52-1.369,0.711-2.103,0.711c-0.525,0-1.063-0.098-1.604-0.243c-4.804-1.29-6.169-6.11-5.083-9.457
			c0.7-2.159,2.133-3.529,4.444-3.933c0.367-0.064,0.729-0.095,1.083-0.095c1.084,0,2.11,0.285,3.114,0.752
			c2.809,1.307,4.926,3.407,6.675,5.907c1.147,1.639,1.872,3.467,2.249,5.43c0.521,2.716-0.314,4.691-2.623,6.237
			c-0.787,0.527-1.629,0.941-2.515,1.277c-1.495,0.567-3.019,0.885-4.579,0.885c-0.633,0-1.271-0.052-1.918-0.162
			c0.007,0.072,0,0.109,0.015,0.129c0.052,0.068,0.103,0.143,0.169,0.194c2.275,1.771,4.754,2.929,7.684,2.929
			c0.146,0,0.294-0.003,0.443-0.009c1.493-0.059,2.833-0.429,4.076-1.237c1.536-0.999,2.732-2.321,3.742-3.832
			C172.017,345.131,172.941,342.121,173.455,338.942z"/>
	</g>
</g>
</svg>
